<svg width="111" height="111" viewBox="0 0 111 111" fill="none" xmlns="http://www.w3.org/2000/svg">
  <rect x="0.5" y="0.5" width="110" height="110" rx="20" fill="white" stroke="#E5E7EB"/>
  <path d="M35 50 C35 45, 40 40, 45 40 C50 40, 55 45, 55 50 C55 55, 50 60, 45 60 C40 60, 35 55, 35 50 Z" fill="#341291"/>
  <path d="M55 50 L75 50" fill="none" stroke="#571EFA" stroke-width="4"/>
  <path d="M75 50 L85 40 M75 50 L85 60" fill="none" stroke="#341291" stroke-width="3" stroke-linecap="round"/>
  <path d="M75 50 C80 45, 85 45, 85 50 C85 55, 80 60, 75 60" fill="none" stroke="#571EFA" stroke-width="3"/>
  <text x="55" y="135" text-anchor="middle" font-family="system-ui,sans-serif" font-size="11" fill="#6B7280">SSP</text>
</svg>