<svg width="1200" height="400" viewBox="0 0 1200 400" fill="none" xmlns="http://www.w3.org/2000/svg">
  <!-- Sky — luminous purple, lighter on left (paradise), darker on right (hell) -->
  <rect width="1200" height="400" fill="#341291"/>
  <rect width="1200" height="200" fill="#3F1AAA" opacity="0.35"/>
  <ellipse cx="300" cy="0" rx="500" ry="180" fill="#571EFA" opacity="0.12"/>
  <ellipse cx="600" cy="0" rx="400" ry="150" fill="#571EFA" opacity="0.08"/>

  <!-- ═══ LEFT PANEL: Paradise ═══ -->
  <!-- Fountain of Life — concentric spheres rising from pool -->
  <ellipse cx="170" cy="310" rx="130" ry="50" fill="#571EFA" opacity="0.15"/>
  <ellipse cx="170" cy="305" rx="110" ry="38" fill="#571EFA" opacity="0.1"/>
  <circle cx="170" cy="260" r="28" fill="#3F1AAA" opacity="0.6"/>
  <circle cx="170" cy="260" r="22" fill="#571EFA" opacity="0.5"/>
  <circle cx="170" cy="252" r="8" fill="#341291"/>
  <circle cx="170" cy="252" r="4" fill="#DDD6FE" opacity="0.6"/>
  <rect x="166" y="225" width="8" height="27" rx="2" fill="#3F1AAA" opacity="0.7"/>
  <circle cx="170" cy="222" r="6" fill="#DDD6FE" opacity="0.4"/>
  <circle cx="170" cy="222" r="3" fill="white" opacity="0.5"/>
  <!-- Water streams -->
  <path d="M162,240 Q148,265 138,290" stroke="#DDD6FE" stroke-width="1.5" opacity="0.2" fill="none"/>
  <path d="M178,240 Q192,265 202,290" stroke="#DDD6FE" stroke-width="1.5" opacity="0.2" fill="none"/>
  <path d="M165,243 Q155,260 145,280" stroke="#DDD6FE" stroke-width="1" opacity="0.15" fill="none"/>
  <path d="M175,243 Q185,260 195,280" stroke="#DDD6FE" stroke-width="1" opacity="0.15" fill="none"/>

  <!-- Tree of Knowledge — organic branching form -->
  <path d="M95,360 Q90,310 88,270 Q85,248 98,228 Q108,218 118,235 Q128,220 140,230 Q150,225 146,258 Q156,240 162,268 Q168,310 155,360 Z" fill="#571EFA" opacity="0.7"/>
  <path d="M98,228 Q82,195 68,175 Q58,162 74,158 Q90,152 100,168 Q94,140 106,128 Q118,122 122,140 Q134,128 142,140 Q152,150 146,168 Q156,158 160,175 Q164,192 155,208 Q162,225 150,240" fill="#3F1AAA" opacity="0.5"/>
  <circle cx="78" cy="172" r="6" fill="#DDD6FE" opacity="0.6"/>
  <circle cx="120" cy="138" r="7" fill="#571EFA" opacity="0.5"/>
  <circle cx="144" cy="162" r="5" fill="#DDD6FE" opacity="0.4"/>
  <circle cx="104" cy="128" r="4" fill="white" opacity="0.35"/>
  <circle cx="135" cy="130" r="3" fill="#DDD6FE" opacity="0.3"/>

  <!-- Dark Pond with creatures -->
  <ellipse cx="55" cy="355" rx="45" ry="18" fill="#341291" opacity="0.6"/>
  <path d="M38,348 Q45,340 54,345 Q58,350 54,356 Q58,360 52,364 Q44,368 38,358 Z" fill="#DDD6FE" opacity="0.15"/>
  <circle cx="48" cy="342" r="2" fill="#341291" opacity="0.5"/>
  <path d="M60,350 Q68,344 74,348 Q76,354 70,358 Q64,360 60,354 Z" fill="#3F1AAA" opacity="0.2"/>
  <circle cx="68" cy="346" r="2" fill="#341291" opacity="0.4"/>

  <!-- Strange botanical forms -->
  <path d="M260,385 Q265,362 270,345 Q275,335 282,340 Q288,333 294,338 Q292,350 285,368 Q280,382 272,390 Z" fill="#571EFA" opacity="0.35"/>
  <circle cx="280" cy="337" r="4" fill="#DDD6FE" opacity="0.3"/>
  <circle cx="275" cy="335" r="2" fill="white" opacity="0.25"/>
  <path d="M310,390 Q313,375 318,362 Q322,355 328,360 Q332,354 337,358 Q335,370 328,382 Z" fill="#3F1AAA" opacity="0.3"/>
  <circle cx="326" cy="356" r="3" fill="#DDD6FE" opacity="0.25"/>

  <!-- Exotic creature silhouettes — varying scale -->
  <circle cx="125" cy="335" r="3" fill="#DDD6FE" opacity="0.25"/>
  <circle cx="138" cy="332" r="2.5" fill="white" opacity="0.2"/>
  <circle cx="150" cy="337" r="3" fill="#571EFA" opacity="0.2"/>
  <path d="M200,345 Q208,338 216,342 Q218,348 212,352 Q204,354 200,348 Z" fill="#DDD6FE" opacity="0.18"/>

  <!-- ═══ CENTER PANEL: Earthly Delights ═══ -->
  <!-- Central Circular Pool — compositional anchor -->
  <circle cx="600" cy="305" r="90" fill="#571EFA" opacity="0.12"/>
  <circle cx="600" cy="305" r="80" fill="#571EFA" opacity="0.08"/>
  <circle cx="600" cy="305" r="55" fill="#DDD6FE" opacity="0.05"/>
  <!-- Anticlockwise procession -->
  <path d="M510,305 A90,90 0 0,0 690,305" fill="none" stroke="#DDD6FE" stroke-width="1.5" opacity="0.2" stroke-dasharray="6 10"/>
  <!-- Rider silhouettes on procession -->
  <path d="M520,295 Q525,288 532,292 Q534,298 528,302 Z" fill="#3F1AAA" opacity="0.3"/>
  <path d="M550,282 Q558,275 566,280 Q568,288 560,292 Z" fill="#DDD6FE" opacity="0.2"/>
  <path d="M620,280 Q628,274 636,278 Q638,286 630,290 Z" fill="#3F1AAA" opacity="0.25"/>
  <path d="M660,292 Q668,285 675,290 Q676,298 668,302 Z" fill="#DDD6FE" opacity="0.18"/>

  <!-- Central Fountain — rising from pool -->
  <path d="M575,305 Q578,268 582,240 Q586,218 600,208 Q614,218 618,240 Q622,268 625,305 Z" fill="#571EFA" opacity="0.55"/>
  <ellipse cx="600" cy="240" rx="25" ry="7" fill="#DDD6FE" opacity="0.2"/>
  <ellipse cx="600" cy="225" rx="18" ry="5" fill="#DDD6FE" opacity="0.15"/>
  <circle cx="600" cy="215" r="8" fill="#DDD6FE" opacity="0.35"/>
  <circle cx="600" cy="215" r="4" fill="white" opacity="0.4"/>
  <!-- Water streams -->
  <path d="M592,248 Q575,272 560,295" stroke="#DDD6FE" stroke-width="1.5" opacity="0.18" fill="none"/>
  <path d="M608,248 Q625,272 640,295" stroke="#DDD6FE" stroke-width="1.5" opacity="0.18" fill="none"/>

  <!-- Five Fantasy Towers — alternating colors, symmetric -->
  <path d="M440,210 L445,140 L450,125 L455,140 L460,210 Z" fill="#571EFA" opacity="0.5"/>
  <rect x="444" y="155" width="12" height="6" rx="1" fill="#DDD6FE" opacity="0.15"/>
  <circle cx="450" cy="128" r="5" fill="#DDD6FE" opacity="0.2"/>
  <path d="M510,200 L513,150 L518,135 L523,150 L526,200 Z" fill="#3F1AAA" opacity="0.45"/>
  <circle cx="518" cy="138" r="4" fill="#DDD6FE" opacity="0.15"/>
  <path d="M580,195 L582,148 L586,130 L590,135 L592,150 L594,195 Z" fill="#571EFA" opacity="0.4"/>
  <circle cx="586" cy="133" r="5" fill="#DDD6FE" opacity="0.2"/>
  <path d="M615,200 L618,148 L622,132 L626,148 L629,200 Z" fill="#3F1AAA" opacity="0.4"/>
  <circle cx="622" cy="135" r="4" fill="#DDD6FE" opacity="0.15"/>
  <path d="M700,210 L705,142 L710,128 L715,142 L720,210 Z" fill="#571EFA" opacity="0.5"/>
  <rect x="704" y="158" width="12" height="6" rx="1" fill="#DDD6FE" opacity="0.15"/>
  <circle cx="710" cy="131" r="5" fill="#DDD6FE" opacity="0.2"/>
  <!-- River connecting towers -->
  <path d="M430,220 Q500,215 570,210 Q640,208 720,215" stroke="#DDD6FE" stroke-width="2" opacity="0.12" fill="none"/>

  <!-- Transparent Flower-Sphere — couple inside -->
  <circle cx="470" cy="270" r="22" fill="#571EFA" opacity="0.1"/>
  <circle cx="470" cy="270" r="22" fill="none" stroke="#DDD6FE" stroke-width="1.5" opacity="0.35"/>
  <ellipse cx="464" cy="272" rx="5" ry="8" fill="#3F1AAA" opacity="0.3"/>
  <ellipse cx="476" cy="272" rx="5" ry="8" fill="#DDD6FE" opacity="0.2"/>
  <!-- Stem connecting to lower bulb -->
  <path d="M470,292 Q468,310 465,325" stroke="#3F1AAA" stroke-width="3" opacity="0.3" fill="none"/>
  <circle cx="465" cy="328" r="8" fill="#341291" opacity="0.5"/>
  <circle cx="465" cy="326" r="3" fill="#DDD6FE" opacity="0.4"/>

  <!-- Oversized Fruit — Bosch strawberries -->
  <ellipse cx="520" cy="258" rx="16" ry="13" fill="#571EFA" opacity="0.4"/>
  <path d="M513,248 Q520,241 527,248" fill="#3F1AAA" opacity="0.3"/>
  <circle cx="518" cy="246" r="1.5" fill="white" opacity="0.35"/>
  <circle cx="524" cy="244" r="1.5" fill="white" opacity="0.25"/>
  <ellipse cx="660" cy="252" rx="14" ry="11" fill="#3F1AAA" opacity="0.4"/>
  <path d="M654,244 Q660,238 666,244" fill="#DDD6FE" opacity="0.25"/>
  <circle cx="740" cy="265" rx="10" ry="8" fill="#571EFA" opacity="0.3"/>
  <path d="M735,258 Q740,253 745,258" fill="#3F1AAA" opacity="0.2"/>

  <!-- Giant Owl — half submerged -->
  <ellipse cx="730" cy="285" rx="28" ry="18" fill="#3F1AAA" opacity="0.3"/>
  <circle cx="718" cy="274" r="10" fill="#341291" opacity="0.4"/>
  <circle cx="716" cy="272" r="4" fill="#DDD6FE" opacity="0.5"/>
  <circle cx="720" cy="272" r="1.5" fill="#341291"/>
  <!-- Ear tufts -->
  <path d="M712,266 L708,258 L716,264" fill="#3F1AAA" opacity="0.25"/>
  <path d="M724,264 L728,256 L720,262" fill="#3F1AAA" opacity="0.2"/>
  <!-- Wings -->
  <path d="M708,280 Q698,268 690,272 Q700,280 706,284" fill="#571EFA" opacity="0.2"/>
  <path d="M748,280 Q758,266 766,270 Q756,280 750,284" fill="#571EFA" opacity="0.2"/>

  <!-- Cracked Egg with climbing figures -->
  <ellipse cx="780" cy="260" rx="12" ry="18" fill="white" opacity="0.2"/>
  <path d="M772,250 Q778,244 784,250 Q782,258 776,262" fill="#DDD6FE" opacity="0.15"/>
  <path d="M778,248 L780,242 L782,248" stroke="#3F1AAA" stroke-width="1" opacity="0.2" fill="none"/>
  <path d="M776,252 L774,246 L778,250" stroke="#DDD6FE" stroke-width="1" opacity="0.15" fill="none"/>

  <!-- Figures emerging from orbs -->
  <circle cx="420" cy="255" r="10" fill="#DDD6FE" opacity="0.1"/>
  <circle cx="420" cy="255" r="10" fill="none" stroke="#DDD6FE" stroke-width="1" opacity="0.2"/>
  <path d="M418,252 L418,246 L420,244 L422,246 L422,252" fill="#DDD6FE" opacity="0.12"/>
  <circle cx="760" cy="248" r="8" fill="#DDD6FE" opacity="0.08"/>
  <circle cx="760" cy="248" r="8" fill="none" stroke="#DDD6FE" stroke-width="1" opacity="0.15"/>
  <path d="M758,246 L758,241 L760,239 L762,241 L762,246" fill="#DDD6FE" opacity="0.1"/>

  <!-- Architectural arches -->
  <path d="M400,215 Q400,175 415,158 Q430,145 445,158 Q460,175 460,215" stroke="#DDD6FE" stroke-width="1.5" opacity="0.15" fill="none"/>
  <path d="M408,215 Q408,182 420,168 Q430,158 442,168 Q454,182 454,215" stroke="white" stroke-width="1" opacity="0.08" fill="none"/>
  <rect x="412" y="210" width="36" height="5" rx="1" fill="#DDD6FE" opacity="0.06"/>
  <path d="M730,205 Q730,168 745,152 Q760,140 775,152 Q790,168 790,205" stroke="#DDD6FE" stroke-width="1.5" opacity="0.12" fill="none"/>

  <!-- ═══ RIGHT PANEL: Hell ═══ -->
  <!-- Towering structures -->
  <path d="M960,210 L964,120 L968,100 L972,90 L976,100 L980,120 L984,210 Z" fill="#341291" opacity="0.65"/>
  <rect x="966" y="135" width="12" height="6" rx="1" fill="#DDD6FE" opacity="0.12"/>
  <rect x="964" y="160" width="16" height="6" rx="1" fill="#DDD6FE" opacity="0.1"/>
  <circle cx="972" cy="92" r="5" fill="#571EFA" opacity="0.3"/>
  <path d="M1040,215 L1043,135 L1047,120 L1051,135 L1054,215 Z" fill="#341291" opacity="0.55"/>
  <circle cx="1047" cy="122" r="4" fill="#571EFA" opacity="0.25"/>
  <path d="M1100,220 L1103,155 L1106,142 L1109,155 L1112,220 Z" fill="#341291" opacity="0.5"/>
  <circle cx="1106" cy="144" r="3.5" fill="#571EFA" opacity="0.2"/>

  <!-- Bird-Toad creature on throne -->
  <rect x="1000" y="282" width="30" height="4" rx="1" fill="#3F1AAA" opacity="0.3"/>
  <rect x="1004" y="286" width="4" height="12" fill="#341291" opacity="0.4"/>
  <rect x="1022" y="286" width="4" height="12" fill="#341291" opacity="0.4"/>
  <ellipse cx="1015" cy="272" rx="22" ry="14" fill="#341291" opacity="0.5"/>
  <circle cx="1005" cy="262" r="9" fill="#341291" opacity="0.45"/>
  <circle cx="1003" cy="260" r="3.5" fill="#DDD6FE" opacity="0.4"/>
  <!-- Wings -->
  <path d="M998,268 Q988,258 982,262 Q990,270 996,274" fill="#571EFA" opacity="0.2"/>
  <path d="M1032,268 Q1042,256 1048,260 Q1040,270 1034,274" fill="#571EFA" opacity="0.2"/>
  <!-- Bubble below -->
  <circle cx="1015" cy="308" r="14" fill="none" stroke="#DDD6FE" stroke-width="1" opacity="0.15"/>

  <!-- Musical instrument — harp form -->
  <path d="M1080,275 Q1075,250 1080,235 Q1090,225 1095,240 Q1100,255 1095,280" stroke="#3F1AAA" stroke-width="2.5" opacity="0.25" fill="none"/>
  <line x1="1085" y1="242" x2="1085" y2="275" stroke="#DDD6FE" stroke-width="0.5" opacity="0.15"/>
  <line x1="1088" y1="238" x2="1088" y2="272" stroke="#DDD6FE" stroke-width="0.5" opacity="0.12"/>
  <line x1="1091" y1="236" x2="1090" y2="268" stroke="#DDD6FE" stroke-width="0.5" opacity="0.1"/>

  <!-- Dark pool -->
  <ellipse cx="1050" cy="330" rx="90" ry="40" fill="#341291" opacity="0.35"/>
  <ellipse cx="1050" cy="328" rx="70" ry="28" fill="#341291" opacity="0.2"/>

  <!-- Burning city silhouettes -->
  <rect x="1120" y="170" width="18" height="50" fill="#341291" opacity="0.5"/>
  <rect x="1145" y="185" width="14" height="35" fill="#341291" opacity="0.45"/>
  <rect x="1168" y="175" width="20" height="45" fill="#341291" opacity="0.4"/>
  <rect x="1125" y="180" width="4" height="6" fill="#DDD6FE" opacity="0.15"/>
  <rect x="1125" y="195" width="4" height="6" fill="#DDD6FE" opacity="0.12"/>
  <circle cx="1128" cy="200" r="3" fill="#DDD6FE" opacity="0.1"/>
  <rect x="1150" y="192" width="4" height="5" fill="#DDD6FE" opacity="0.12"/>
  <circle cx="1178" cy="190" r="8" fill="#571EFA" opacity="0.15"/>
  <circle cx="1178" cy="190" r="4" fill="#DDD6FE" opacity="0.1"/>

  <!-- ═══ TYPOGRAPHY ═══ -->
  <text x="400" y="60" fill="white" font-family="system-ui,-apple-system,sans-serif" font-size="48" font-weight="700" letter-spacing="-1">openDesk</text>
  <text x="400" y="95" fill="#DDD6FE" font-family="system-ui,-apple-system,sans-serif" font-size="32" font-weight="400" letter-spacing="4">EDUCATION</text>
  <rect x="400" y="108" width="320" height="3" rx="1.5" fill="#DDD6FE" opacity="0.5"/>
  <rect x="400" y="116" width="280" height="2" rx="1" fill="#DDD6FE" opacity="0.3"/>

  <!-- ═══ SHARED ELEMENTS ═══ -->
  <!-- Scattered bubbles/orbs in sky -->
  <circle cx="340" cy="180" r="3.5" fill="#DDD6FE" opacity="0.2"/>
  <circle cx="348" cy="170" r="2.5" fill="white" opacity="0.15"/>
  <circle cx="490" cy="155" r="4" fill="#DDD6FE" opacity="0.15"/>
  <circle cx="540" cy="140" r="3" fill="#DDD6FE" opacity="0.18"/>
  <circle cx="650" cy="145" r="2.5" fill="white" opacity="0.12"/>
  <circle cx="700" cy="165" r="3.5" fill="#DDD6FE" opacity="0.15"/>
  <circle cx="780" cy="155" r="3" fill="#DDD6FE" opacity="0.18"/>
  <circle cx="850" cy="175" r="4" fill="#DDD6FE" opacity="0.12"/>
  <circle cx="920" cy="165" r="2.5" fill="white" opacity="0.12"/>
  <circle cx="280" cy="200" r="2.5" fill="white" opacity="0.12"/>
  <circle cx="560" cy="170" r="3" fill="#DDD6FE" opacity="0.15"/>
  <circle cx="380" cy="160" r="2" fill="#DDD6FE" opacity="0.12"/>
  <circle cx="820" cy="145" r="3" fill="#DDD6FE" opacity="0.1"/>
  <circle cx="960" cy="155" r="2.5" fill="white" opacity="0.1"/>

  <!-- Rolling hills — continuous landscape -->
  <path d="M0,360 Q150,335 300,348 Q450,362 600,352 Q750,342 900,356 Q1050,368 1200,358 L1200,400 L0,400 Z" fill="#3F1AAA" opacity="0.4"/>
  <path d="M0,378 Q200,360 400,370 Q600,380 800,368 Q1000,358 1200,372 L1200,400 L0,400 Z" fill="#341291" opacity="0.35"/>

  <!-- Water reflections -->
  <ellipse cx="170" cy="318" rx="55" ry="6" fill="#DDD6FE" opacity="0.06"/>
  <ellipse cx="600" cy="320" rx="70" ry="8" fill="#DDD6FE" opacity="0.04"/>
  <ellipse cx="1050" cy="335" rx="45" ry="5" fill="#DDD6FE" opacity="0.04"/>

  <!-- Strange plants along bottom -->
  <path d="M25,388 Q30,368 35,352 Q40,344 46,348 Q52,342 57,348 Q55,360 48,376 Q44,388 36,392 Z" fill="#571EFA" opacity="0.3"/>
  <circle cx="44" cy="346" r="3" fill="#DDD6FE" opacity="0.25"/>
  <path d="M340,392 Q344,378 348,365 Q352,358 358,362 Q356,374 350,385 Z" fill="#3F1AAA" opacity="0.25"/>
  <circle cx="355" cy="360" r="2.5" fill="#DDD6FE" opacity="0.2"/>
  <path d="M565,388 Q569,372 574,358 Q578,352 584,356 Q582,368 576,380 Z" fill="#571EFA" opacity="0.22"/>
  <circle cx="581" cy="354" r="2.5" fill="#DDD6FE" opacity="0.18"/>
  <path d="M870,390 Q874,375 878,362 Q882,356 888,360 Q886,372 880,384 Z" fill="#3F1AAA" opacity="0.25"/>
  <circle cx="887" cy="358" r="2.5" fill="#DDD6FE" opacity="0.15"/>
  <path d="M1130,388 Q1134,372 1138,358 Q1142,352 1148,356 Q1146,368 1140,380 Z" fill="#571EFA" opacity="0.22"/>
  <circle cx="1147" cy="354" r="2.5" fill="#DDD6FE" opacity="0.15"/>

  <!-- Tiny figures in distance — Bosch's crowds -->
  <circle cx="350" cy="358" r="1.8" fill="white" opacity="0.12"/>
  <circle cx="360" cy="360" r="1.8" fill="#DDD6FE" opacity="0.1"/>
  <circle cx="370" cy="357" r="1.8" fill="white" opacity="0.1"/>
  <circle cx="630" cy="354" r="1.8" fill="#DDD6FE" opacity="0.1"/>
  <circle cx="640" cy="357" r="1.8" fill="white" opacity="0.08"/>
  <circle cx="650" cy="354" r="1.8" fill="#DDD6FE" opacity="0.1"/>
  <circle cx="830" cy="360" r="1.8" fill="white" opacity="0.08"/>
  <circle cx="840" cy="357" r="1.8" fill="#DDD6FE" opacity="0.1"/>
</svg>
